<svg width="57" height="57" viewBox="0 0 57 57" fill="none" xmlns="http://www.w3.org/2000/svg">
<path d="M21.9687 52.25L21.0187 44.65C20.5041 44.4521 20.0192 44.2146 19.564 43.9375C19.1088 43.6604 18.6635 43.3635 18.2281 43.0469L11.1625 46.0156L4.63123 34.7344L10.7469 30.1031C10.7073 29.826 10.6875 29.5589 10.6875 29.3016V27.6984C10.6875 27.4411 10.7073 27.174 10.7469 26.8969L4.63123 22.2656L11.1625 10.9844L18.2281 13.9531C18.6635 13.6365 19.1187 13.3396 19.5937 13.0625C20.0687 12.7854 20.5437 12.5479 21.0187 12.35L21.9687 4.75H35.0312L35.9812 12.35C36.4958 12.5479 36.9807 12.7854 37.4359 13.0625C37.8911 13.3396 38.3364 13.6365 38.7719 13.9531L45.8375 10.9844L52.3687 22.2656L46.2531 26.8969C46.2927 27.174 46.3125 27.4411 46.3125 27.6984V29.3016C46.3125 29.5589 46.2729 29.826 46.1937 30.1031L52.3094 34.7344L45.7781 46.0156L38.7719 43.0469C38.3364 43.3635 37.8812 43.6604 37.4062 43.9375C36.9312 44.2146 36.4562 44.4521 35.9812 44.65L35.0312 52.25H21.9687ZM28.6187 36.8125C30.9146 36.8125 32.8739 36.001 34.4969 34.3781C36.1198 32.7552 36.9312 30.7958 36.9312 28.5C36.9312 26.2042 36.1198 24.2448 34.4969 22.6219C32.8739 20.999 30.9146 20.1875 28.6187 20.1875C26.2833 20.1875 24.314 20.999 22.7109 22.6219C21.1078 24.2448 20.3062 26.2042 20.3062 28.5C20.3062 30.7958 21.1078 32.7552 22.7109 34.3781C24.314 36.001 26.2833 36.8125 28.6187 36.8125Z" fill="#1D1B20"/>
</svg>
